<mxfile host="app.diagrams.net" modified="2024-04-22T08:51:08.880Z" agent="Mozilla/5.0 (Windows NT 10.0; Win64; x64) AppleWebKit/537.36 (KHTML, like Gecko) Chrome/124.0.0.0 Safari/537.36" etag="w6qp60hImJXl7VOHLCNS" version="22.1.15" type="device">
  <diagram name="Страница — 1" id="Jc8Szz6v6_RT1xXjdQ1R">
    <mxGraphModel dx="1434" dy="780" grid="1" gridSize="10" guides="1" tooltips="1" connect="1" arrows="1" fold="1" page="1" pageScale="1" pageWidth="1654" pageHeight="2336" math="0" shadow="0">
      <root>
        <mxCell id="0" />
        <mxCell id="1" parent="0" />
        <mxCell id="Tv542-hn4mdmKaGUr-7X-8" style="edgeStyle=orthogonalEdgeStyle;rounded=0;orthogonalLoop=1;jettySize=auto;html=1;exitX=0.25;exitY=0;exitDx=0;exitDy=0;entryX=0.363;entryY=-0.004;entryDx=0;entryDy=0;entryPerimeter=0;" parent="1" target="Tv542-hn4mdmKaGUr-7X-4" edge="1">
          <mxGeometry relative="1" as="geometry">
            <mxPoint x="489" y="170" as="sourcePoint" />
            <mxPoint x="339" y="150" as="targetPoint" />
          </mxGeometry>
        </mxCell>
        <mxCell id="Tv542-hn4mdmKaGUr-7X-11" style="edgeStyle=orthogonalEdgeStyle;rounded=0;orthogonalLoop=1;jettySize=auto;html=1;exitX=0.75;exitY=0;exitDx=0;exitDy=0;entryX=0;entryY=0.75;entryDx=0;entryDy=0;" parent="1" source="Tv542-hn4mdmKaGUr-7X-4" target="Tv542-hn4mdmKaGUr-7X-6" edge="1">
          <mxGeometry relative="1" as="geometry" />
        </mxCell>
        <mxCell id="Tv542-hn4mdmKaGUr-7X-4" value="" style="rounded=0;whiteSpace=wrap;html=1;direction=south;" parent="1" vertex="1">
          <mxGeometry x="80" y="40" width="250" height="360" as="geometry" />
        </mxCell>
        <mxCell id="Tv542-hn4mdmKaGUr-7X-6" value="" style="rounded=0;whiteSpace=wrap;html=1;" parent="1" vertex="1">
          <mxGeometry x="490" y="40" width="240" height="360" as="geometry" />
        </mxCell>
        <mxCell id="Tv542-hn4mdmKaGUr-7X-12" value="Логин&lt;br&gt;&amp;nbsp;пароль&amp;nbsp;" style="rounded=0;whiteSpace=wrap;html=1;" parent="1" vertex="1">
          <mxGeometry x="132.5" y="110" width="145" height="80" as="geometry" />
        </mxCell>
        <mxCell id="Tv542-hn4mdmKaGUr-7X-13" value="Логин&amp;nbsp;&lt;br&gt;Пароль&amp;nbsp;&lt;br&gt;Email&amp;nbsp;&lt;br&gt;Номер телефона&amp;nbsp;&lt;br&gt;" style="rounded=0;whiteSpace=wrap;html=1;" parent="1" vertex="1">
          <mxGeometry x="540" y="90" width="150" height="180" as="geometry" />
        </mxCell>
        <mxCell id="Tv542-hn4mdmKaGUr-7X-14" value="Нет аккаунта?" style="text;html=1;strokeColor=none;fillColor=none;align=center;verticalAlign=middle;whiteSpace=wrap;rounded=0;" parent="1" vertex="1">
          <mxGeometry x="380" y="270" width="60" height="30" as="geometry" />
        </mxCell>
        <mxCell id="Tv542-hn4mdmKaGUr-7X-15" value="Вход&amp;nbsp;" style="text;html=1;strokeColor=none;fillColor=none;align=center;verticalAlign=middle;whiteSpace=wrap;rounded=0;" parent="1" vertex="1">
          <mxGeometry x="72.5" y="10" width="60" height="30" as="geometry" />
        </mxCell>
        <mxCell id="Tv542-hn4mdmKaGUr-7X-16" value="Регистрация&amp;nbsp;" style="text;html=1;strokeColor=none;fillColor=none;align=center;verticalAlign=middle;whiteSpace=wrap;rounded=0;" parent="1" vertex="1">
          <mxGeometry x="490" y="10" width="60" height="30" as="geometry" />
        </mxCell>
        <mxCell id="Tv542-hn4mdmKaGUr-7X-17" value="Аккаунт создан" style="text;html=1;strokeColor=none;fillColor=none;align=center;verticalAlign=middle;whiteSpace=wrap;rounded=0;" parent="1" vertex="1">
          <mxGeometry x="380" y="140" width="60" height="30" as="geometry" />
        </mxCell>
        <mxCell id="Tv542-hn4mdmKaGUr-7X-18" value="" style="rounded=0;whiteSpace=wrap;html=1;" parent="1" vertex="1">
          <mxGeometry x="80" y="490" width="250" height="360" as="geometry" />
        </mxCell>
        <mxCell id="Tv542-hn4mdmKaGUr-7X-19" value="" style="endArrow=classic;html=1;rounded=0;exitX=1;exitY=0.5;exitDx=0;exitDy=0;entryX=0.5;entryY=0;entryDx=0;entryDy=0;" parent="1" edge="1">
          <mxGeometry width="50" height="50" relative="1" as="geometry">
            <mxPoint x="140" y="400" as="sourcePoint" />
            <mxPoint x="140" y="490" as="targetPoint" />
          </mxGeometry>
        </mxCell>
        <mxCell id="Tv542-hn4mdmKaGUr-7X-36" value="Данные совпадают" style="edgeLabel;html=1;align=center;verticalAlign=middle;resizable=0;points=[];" parent="Tv542-hn4mdmKaGUr-7X-19" vertex="1" connectable="0">
          <mxGeometry x="-0.1944" y="2" relative="1" as="geometry">
            <mxPoint as="offset" />
          </mxGeometry>
        </mxCell>
        <mxCell id="Tv542-hn4mdmKaGUr-7X-20" value="Личный кабинет" style="text;html=1;strokeColor=none;fillColor=none;align=center;verticalAlign=middle;whiteSpace=wrap;rounded=0;" parent="1" vertex="1">
          <mxGeometry x="80" y="460" width="60" height="30" as="geometry" />
        </mxCell>
        <mxCell id="Tv542-hn4mdmKaGUr-7X-21" value="Личная информация,&lt;br&gt;Контактные данные,&lt;br&gt;Название пианино" style="rounded=0;whiteSpace=wrap;html=1;" parent="1" vertex="1">
          <mxGeometry x="145" y="540" width="120" height="180" as="geometry" />
        </mxCell>
        <mxCell id="Tv542-hn4mdmKaGUr-7X-22" value="" style="endArrow=classic;html=1;rounded=0;exitX=1.008;exitY=0.186;exitDx=0;exitDy=0;exitPerimeter=0;" parent="1" edge="1">
          <mxGeometry width="50" height="50" relative="1" as="geometry">
            <mxPoint x="331.0000000000002" y="560.0000000000002" as="sourcePoint" />
            <mxPoint x="489" y="560.04" as="targetPoint" />
          </mxGeometry>
        </mxCell>
        <mxCell id="Tv542-hn4mdmKaGUr-7X-31" style="edgeStyle=orthogonalEdgeStyle;rounded=0;orthogonalLoop=1;jettySize=auto;html=1;exitX=0.5;exitY=1;exitDx=0;exitDy=0;entryX=0.5;entryY=0;entryDx=0;entryDy=0;" parent="1" source="Tv542-hn4mdmKaGUr-7X-23" target="Tv542-hn4mdmKaGUr-7X-30" edge="1">
          <mxGeometry relative="1" as="geometry" />
        </mxCell>
        <mxCell id="Tv542-hn4mdmKaGUr-7X-23" value="" style="rounded=0;whiteSpace=wrap;html=1;" parent="1" vertex="1">
          <mxGeometry x="490" y="490" width="240" height="360" as="geometry" />
        </mxCell>
        <mxCell id="Tv542-hn4mdmKaGUr-7X-24" value="Вид расхода,&lt;br&gt;Сумма,&lt;br&gt;Модель,&lt;br&gt;Дата доставки ." style="rounded=0;whiteSpace=wrap;html=1;" parent="1" vertex="1">
          <mxGeometry x="540" y="525" width="150" height="245" as="geometry" />
        </mxCell>
        <mxCell id="Tv542-hn4mdmKaGUr-7X-25" value="Окно запроса на операцию" style="text;html=1;strokeColor=none;fillColor=none;align=center;verticalAlign=middle;whiteSpace=wrap;rounded=0;" parent="1" vertex="1">
          <mxGeometry x="480" y="460" width="130" height="30" as="geometry" />
        </mxCell>
        <mxCell id="Tv542-hn4mdmKaGUr-7X-27" value="Запрос на операцию" style="text;html=1;strokeColor=none;fillColor=none;align=center;verticalAlign=middle;whiteSpace=wrap;rounded=0;" parent="1" vertex="1">
          <mxGeometry x="365" y="525" width="90" height="30" as="geometry" />
        </mxCell>
        <mxCell id="Tv542-hn4mdmKaGUr-7X-40" style="edgeStyle=orthogonalEdgeStyle;rounded=0;orthogonalLoop=1;jettySize=auto;html=1;exitX=0;exitY=0.5;exitDx=0;exitDy=0;entryX=0.5;entryY=1;entryDx=0;entryDy=0;" parent="1" source="Tv542-hn4mdmKaGUr-7X-30" target="Tv542-hn4mdmKaGUr-7X-18" edge="1">
          <mxGeometry relative="1" as="geometry" />
        </mxCell>
        <mxCell id="Tv542-hn4mdmKaGUr-7X-41" value="Покупка заносится в историю&lt;br&gt;и отображается остаток на месяц" style="edgeLabel;html=1;align=center;verticalAlign=middle;resizable=0;points=[];" parent="Tv542-hn4mdmKaGUr-7X-40" vertex="1" connectable="0">
          <mxGeometry x="-0.4262" y="4" relative="1" as="geometry">
            <mxPoint x="-1" as="offset" />
          </mxGeometry>
        </mxCell>
        <mxCell id="Tv542-hn4mdmKaGUr-7X-30" value="" style="rounded=0;whiteSpace=wrap;html=1;" parent="1" vertex="1">
          <mxGeometry x="490" y="880" width="240" height="370" as="geometry" />
        </mxCell>
        <mxCell id="Tv542-hn4mdmKaGUr-7X-32" value="Информация о покупке,&lt;br&gt;" style="rounded=0;whiteSpace=wrap;html=1;" parent="1" vertex="1">
          <mxGeometry x="520" y="920" width="180" height="240" as="geometry" />
        </mxCell>
        <mxCell id="Tv542-hn4mdmKaGUr-7X-33" value="Окно одобрения&amp;nbsp;" style="text;html=1;strokeColor=none;fillColor=none;align=center;verticalAlign=middle;whiteSpace=wrap;rounded=0;" parent="1" vertex="1">
          <mxGeometry x="640" y="850" width="60" height="30" as="geometry" />
        </mxCell>
        <mxCell id="Tv542-hn4mdmKaGUr-7X-37" value="" style="endArrow=classic;html=1;rounded=0;entryX=1;entryY=0.25;entryDx=0;entryDy=0;exitX=0.75;exitY=0;exitDx=0;exitDy=0;" parent="1" edge="1">
          <mxGeometry width="50" height="50" relative="1" as="geometry">
            <mxPoint x="310" y="490" as="sourcePoint" />
            <mxPoint x="310" y="400" as="targetPoint" />
          </mxGeometry>
        </mxCell>
        <mxCell id="Tv542-hn4mdmKaGUr-7X-39" value="Ошибка неверный &lt;br&gt;логин или пароль / прохождение капчи." style="edgeLabel;html=1;align=center;verticalAlign=middle;resizable=0;points=[];" parent="Tv542-hn4mdmKaGUr-7X-37" vertex="1" connectable="0">
          <mxGeometry x="0.0833" y="-1" relative="1" as="geometry">
            <mxPoint as="offset" />
          </mxGeometry>
        </mxCell>
      </root>
    </mxGraphModel>
  </diagram>
</mxfile>
